<svg xmlns="http://www.w3.org/2000/svg" enable-background="new 0 0 24 24" viewBox="0 0 24 24" id="computer"><path fill="#303c42" d="M22 1H2C.897 1 0 1.897 0 3v14c0 1.103.897 2 2 2h7.001c-.022.799-.175 2.077-.745 2.677A.982.982 0 0 1 7.5 22a.5.5 0 0 0 0 1h9a.5.5 0 0 0 0-1 .982.982 0 0 1-.756-.323c-.57-.6-.723-1.877-.745-2.677H22c1.103 0 2-.897 2-2V3c0-1.103-.897-2-2-2z"></path><path fill="#cfe8fc" d="M2 2h20c.551 0 1 .449 1 1v11H1V3c0-.551.449-1 1-1z"></path><linearGradient id="a" x1="10.049" x2="20.5" y1="6.049" y2="16.5" gradientUnits="userSpaceOnUse"><stop offset="0" stop-opacity=".1"></stop><stop offset="1" stop-opacity="0"></stop></linearGradient><path fill="url(#a)" d="m19.864 3.158-2.221 5.788-3.738-3.738-2.978 6.024-3.03-3.031-3.736 4.665L5.294 14H23V6.294z"></path><path fill="#303c42" d="M4.5 13h3a.5.5 0 0 0 .5-.5v-4a.5.5 0 0 0-.5-.5h-3a.5.5 0 0 0-.5.5v4a.5.5 0 0 0 .5.5z"></path><path fill="#f2f2f2" d="M22 18H2c-.551 0-1-.449-1-1v-2h22v2c0 .551-.449 1-1 1z"></path><path fill="#1e88e5" d="M5 9h2v3H5z"></path><path fill="#303c42" d="M10.5 13h3a.5.5 0 0 0 .5-.5v-7a.5.5 0 0 0-.5-.5h-3a.5.5 0 0 0-.5.5v7a.5.5 0 0 0 .5.5z"></path><path fill="#1e88e5" d="M11 6h2v6h-2z"></path><path fill="#303c42" d="M16.5 13h3a.5.5 0 0 0 .5-.5v-9a.5.5 0 0 0-.5-.5h-3a.5.5 0 0 0-.5.5v9a.5.5 0 0 0 .5.5z"></path><path fill="#1e88e5" d="M17 4h2v8h-2z"></path><path fill="#f2f2f2" d="M14.731 22H9.269c.604-.926.721-2.259.736-3h3.991c.015.741.132 2.074.735 3z"></path><circle cx="12" cy="16.5" r="1" fill="#303c42"></circle><linearGradient id="b" x1="11.002" x2="14.866" y1="18.002" y2="21.866" gradientUnits="userSpaceOnUse"><stop offset="0" stop-opacity=".1"></stop><stop offset="1" stop-opacity="0"></stop></linearGradient><path fill="url(#b)" d="M14.731 22c-.604-.926-.721-2.259-.736-3h-3.991l3 3h1.727z"></path><linearGradient id="c" x1="-.953" x2="24.462" y1="4.6" y2="16.452" gradientUnits="userSpaceOnUse"><stop offset="0" stop-color="#fff" stop-opacity=".2"></stop><stop offset="1" stop-color="#fff" stop-opacity="0"></stop></linearGradient><path fill="url(#c)" d="M22 1H2C.897 1 0 1.897 0 3v14c0 1.103.897 2 2 2h7.001c-.022.799-.175 2.077-.745 2.677A.982.982 0 0 1 7.5 22a.5.5 0 0 0 0 1h9a.5.5 0 0 0 0-1 .982.982 0 0 1-.756-.323c-.57-.6-.723-1.877-.745-2.677H22c1.103 0 2-.897 2-2V3c0-1.103-.897-2-2-2z"></path></svg>