<svg xmlns="http://www.w3.org/2000/svg" viewBox="0 0 64 64" id="report"><path fill="#2b2e63" d="M20.93 8.47H7.88c-.79 0-1.44.65-1.44 1.44v16.67c0 .79.65 1.44 1.44 1.44h13.05c.79 0 1.43-.65 1.43-1.44V9.91c0-.79-.64-1.44-1.43-1.44zM19.5 25.15H9.31V11.34H19.5v13.81zm20.47 8.31c0 .79-.64 1.43-1.43 1.43H7.88c-.79 0-1.44-.64-1.44-1.43s.65-1.43 1.44-1.43h30.66c.79 0 1.43.64 1.43 1.43zm-1.87 6.87c0 .8-.64 1.44-1.43 1.44H7.88c-.79 0-1.44-.64-1.44-1.44 0-.79.65-1.43 1.44-1.43h28.79c.79 0 1.43.64 1.43 1.43zm-4.67 6.88c0 .79-.64 1.43-1.43 1.43H7.88c-.79 0-1.44-.64-1.44-1.43s.65-1.43 1.44-1.43H32c.79 0 1.43.64 1.43 1.43zm-.94 6.88c0 .79-.64 1.43-1.43 1.43H7.88c-.79 0-1.44-.64-1.44-1.43s.65-1.44 1.44-1.44h23.18c.79 0 1.43.65 1.43 1.44z"></path><path fill="#2b2e63" d="M58.82 47.6h-8.66v-8.67c0-.79-.64-1.43-1.43-1.43s-1.56.08-2.3.23V15.47c0-.25-.07-.48-.19-.69 0-.01 0-.01-.01-.02a1.35 1.35 0 0 0-.28-.35L31.64 1.02c-.03-.02-.06-.03-.08-.05-.06-.05-.13-.1-.2-.14-.04-.02-.07-.04-.11-.06-.1-.05-.21-.08-.32-.1-.04-.01-.07-.01-.1-.01-.06-.01-.12-.02-.18-.02H1.43C.64.64 0 1.28 0 2.07v59.86c0 .79.64 1.43 1.43 1.43h43.56c.79 0 1.44-.64 1.44-1.43v-1.61c.74.15 1.51.23 2.3.23 6.36 0 11.53-5.17 11.53-11.52 0-.79-.65-1.43-1.44-1.43zM32.09 5.37l9.27 8.68h-9.27V5.37zm11.47 55.12H2.86V3.51h26.37v11.97c0 .79.64 1.43 1.43 1.43h12.9v21.83c-3.76 1.9-6.35 5.79-6.35 10.29 0 4.49 2.59 8.38 6.35 10.28v1.18zm5.17-2.8c-4.77 0-8.66-3.89-8.66-8.66 0-4.29 3.13-7.86 7.23-8.55v8.55c0 .79.64 1.43 1.43 1.43h8.54c-.68 4.1-4.25 7.23-8.54 7.23z"></path><path fill="#53bf9f" d="M57.27 50.46c-.68 4.1-4.25 7.23-8.54 7.23-4.77 0-8.66-3.89-8.66-8.66 0-4.29 3.13-7.86 7.23-8.55v8.55c0 .79.64 1.43 1.43 1.43h8.54z"></path><path fill="#b7dae7" d="M41.36 14.05h-9.27V5.37z"></path><path fill="#ededed" d="M43.56 38.74V16.91h-12.9c-.79 0-1.43-.64-1.43-1.43V3.51H2.86v56.98h40.7v-1.18c-3.76-1.9-6.35-5.79-6.35-10.28 0-4.5 2.59-8.39 6.35-10.29zM6.44 9.91c0-.79.65-1.44 1.44-1.44h13.05c.79 0 1.43.65 1.43 1.44v16.67c0 .79-.64 1.44-1.43 1.44H7.88c-.79 0-1.44-.65-1.44-1.44V9.91zm24.62 45.61H7.88c-.79 0-1.44-.64-1.44-1.43s.65-1.44 1.44-1.44h23.18c.79 0 1.43.65 1.43 1.44s-.64 1.43-1.43 1.43zm.94-6.88H7.88c-.79 0-1.44-.64-1.44-1.43s.65-1.43 1.44-1.43H32a1.43 1.43 0 1 1 0 2.86zm4.67-6.87H7.88c-.79 0-1.44-.64-1.44-1.44 0-.79.65-1.43 1.44-1.43h28.79c.79 0 1.43.64 1.43 1.43 0 .8-.64 1.44-1.43 1.44zm1.87-6.88H7.88c-.79 0-1.44-.64-1.44-1.43s.65-1.43 1.44-1.43h30.66a1.43 1.43 0 1 1 0 2.86z"></path><path fill="#4ebde5" d="M9.31 11.34H19.5v13.81H9.31z"></path><path fill="#2b2e63" d="M52.47 33.76c-.79 0-1.43.64-1.43 1.43v10.1c0 .79.64 1.43 1.43 1.43h10.09c.8 0 1.44-.64 1.44-1.43 0-6.36-5.17-11.53-11.53-11.53zm1.44 10.1v-7.12a8.68 8.68 0 0 1 7.1 7.12h-7.1z"></path><path fill="#f16150" d="M61.01 43.86h-7.1v-7.12a8.68 8.68 0 0 1 7.1 7.12z"></path></svg>