<svg xmlns="http://www.w3.org/2000/svg" enable-background="new 0 0 66 66" viewBox="0 0 66 66" id="user-interface-design"><rect width="2" height="2" x="4.6" y="2.7" fill="#300aff"></rect><rect width="2" height="2" x="9.8" y="2.7" fill="#0FCAAD"></rect><rect width="2" height="2" x="15.1" y="2.7" fill="#1FA6F8"></rect><polygon fill="#BCD6EF" points="6.5 31.6 11.1 25.5 15.7 29.9 20.6 23.7 25.2 27.7 30 21.9 35.5 26.2 40.9 21.2 45.7 25.2 51.2 17.8 51.2 41.5 6.5 41.5"></polygon><path fill="#ffffff" d="M63.8,19.8v41.1c0,1.6-1.3,2.9-2.9,2.9H36.5c-1.6,0-2.9-1.3-2.9-2.9V19.8c0-1.6,1.3-2.9,2.9-2.9h24.4
		C62.5,16.8,63.8,18.1,63.8,19.8z"></path><path fill="#300aff" d="M65.2,21.2v41.1c0,1.6-1.3,2.9-2.9,2.9H37.9c-1.6,0-2.9-1.3-2.9-2.9V21.2c0-1.6,1.3-2.9,2.9-2.9h24.4
			C63.9,18.3,65.2,19.6,65.2,21.2z"></path><rect width="22.4" height="34.6" x="37.5" y="23" fill="#ffffff"></rect><polygon fill="#0FCAAD" points="61.2 36.7 61.2 59.1 38.8 59.1 38.7 47.7 42.9 43.3 46.9 47 51.1 43 54.7 46"></polygon><path fill="#ffffff" d="M51.9,61.3c0,0.9-0.7,1.6-1.6,1.6c-0.9,0-1.6-0.7-1.6-1.6c0-0.9,0.7-1.6,1.6-1.6
			C51.2,59.7,51.9,60.4,51.9,61.3z"></path><rect width="34.3" height="1" x="5.2" y="9.6" fill="#222F59"></rect><rect width="26.5" height="1" x="5.2" y="13" fill="#222F59"></rect><rect width="20.4" height="1" x="5.2" y="16.3" fill="#222F59"></rect><rect width="21.8" height="1" x="28.8" y="3.2" fill="#222F59"></rect><path fill="#222F59" d="M60.9,16.3h-6.5c0-5.5,0-10.2,0-15.6H0.8c0,15.5,0,28,0,43.6h32.3v16.5c0,1.9,1.5,3.4,3.4,3.4h24.4
			c1.9,0,3.4-1.5,3.4-3.4V19.8C64.3,17.9,62.8,16.3,60.9,16.3z M1.8,1.7h51.6v3.9H1.8V1.7z M1.8,43.3V6.7h51.6v9.6H36.5
			c-1.9,0-3.4,1.5-3.4,3.4V23l-4.4-3.4l-4.8,5.7l-4.7-4l-4.8,6.2l-4.7-4.5l-5.1,6.7v10.6h28.4v2.9H1.8z M33.1,39.4H5.7v-9.3l4.2-5.5
			l4.7,4.5l4.8-6.3l4.6,4l4.8-5.8l4.3,3.3V39.4z M63.3,60.9c0,1.3-1.1,2.4-2.4,2.4H36.5c-1.3,0-2.4-1.1-2.4-2.4V19.8
			c0-1.3,1.1-2.4,2.4-2.4h24.4c1.3,0,2.4,1.1,2.4,2.4V60.9z"></path><path fill="#222F59" d="M60.4,22.5H37v23.4l0,0.1l0,12.2h23.4V33.6l0,0V22.5z M59.4,57.1H38V46.3l3.7-3.8l4,3.6l4.2-4l3.7,3.1
			l6-8.5V57.1z M38,23.5h21.4V35l-6.1,8.8l-3.5-3l-4.1,4l-4-3.6L38,44.8V23.5z"></path><rect width="11" height="1" x="41.7" y="19.4" fill="#222F59"></rect><rect width="1.5" height="1" x="54.2" y="19.4" fill="#222F59"></rect><rect width="15.3" height="1" x="41" y="27.2" fill="#222F59"></rect><rect width="15.3" height="1" x="41" y="31.3" fill="#222F59"></rect><rect width="15.3" height="1" x="41" y="35.3" fill="#222F59"></rect><path fill="#222F59" d="M49.6,58.6c-1.2,0-2.1,0.9-2.1,2.1s0.9,2.1,2.1,2.1s2.1-0.9,2.1-2.1S50.8,58.6,49.6,58.6z M49.6,61.9
			c-0.6,0-1.1-0.5-1.1-1.1s0.5-1.1,1.1-1.1s1.1,0.5,1.1,1.1S50.2,61.9,49.6,61.9z"></path></svg>